<svg fill="#000000" xmlns="http://www.w3.org/2000/svg"  viewBox="0 0 24 24" width="48px" height="48px"><path d="M19,3H5C3.9,3,3,3.9,3,5v14c0,1.1,0.9,2,2,2h14c1.1,0,2-0.9,2-2V5C21,3.9,20.1,3,19,3z M9.79,9.302H8.674v2.512H9.79 c0.744,0,0.93-0.558,0.93-1.209C10.721,9.953,10.442,9.302,9.79,9.302z M9.79,13.116H8.674v2.054c0,0.458-0.372,0.83-0.83,0.83 H7.83C7.372,16,7,15.628,7,15.17V8.83C7,8.372,7.372,8,7.83,8h1.868c2.326,0,2.605,2.14,2.605,2.605 C12.302,12.465,11,13.116,9.79,13.116z M16.835,11.6c-0.074-0.008-0.473-0.047-0.551-0.047c-0.637,0-0.842,0.402-0.92,0.598v3.019 c0,0.458-0.372,0.83-0.83,0.83H14.53c-0.458,0-0.83-0.372-0.83-0.83v-4.435c0-0.406,0.329-0.735,0.735-0.735h0.143 c0.386,0,0.707,0.299,0.733,0.685l0,0.001c0.125-0.254,0.459-0.803,1.084-0.803c0.274,0,0.402,0.053,0.457,0.076L16.835,11.6z"/></svg>