<?xml version="1.0" standalone="no"?>
<!DOCTYPE svg PUBLIC "-//W3C//DTD SVG 20010904//EN"
 "http://www.w3.org/TR/2001/REC-SVG-20010904/DTD/svg10.dtd">
<svg version="1.0" xmlns="http://www.w3.org/2000/svg"
 width="500.000000pt" height="500.000000pt" viewBox="0 0 500.000000 500.000000"
 preserveAspectRatio="xMidYMid meet">

<g transform="translate(0.000000,500.000000) scale(0.100000,-0.100000)"
fill="#000000" stroke="none">
<path d="M3098 3239 c-37 -4 -93 -15 -124 -24 -75 -22 -176 -73 -169 -85 3 -5
0 -7 -8 -4 -21 8 -127 -77 -186 -148 -108 -130 -207 -405 -158 -435 30 -18 47
-59 47 -110 0 -44 -5 -58 -31 -88 l-31 -35 1 -208 c1 -223 -11 -314 -49 -379
-11 -19 -17 -39 -14 -45 4 -7 2 -8 -4 -4 -6 4 -16 -4 -23 -16 -13 -24 -38 -47
-100 -89 -21 -15 -35 -30 -31 -34 4 -5 1 -5 -5 -1 -7 4 -33 0 -58 -9 -98 -33
-239 -14 -330 44 -22 14 -44 24 -48 23 -5 -1 -6 2 -3 7 4 5 2 12 -4 16 -5 3
-66 -50 -135 -118 l-124 -124 41 -34 c64 -52 121 -88 130 -83 4 3 8 1 8 -4 0
-14 48 -32 67 -26 12 4 14 3 6 -3 -15 -11 51 -38 67 -28 5 3 10 2 10 -3 0 -14
113 -32 197 -32 140 0 328 53 316 88 -4 14 -3 14 5 3 8 -12 19 -9 64 17 29 16
52 35 50 42 -1 6 2 9 8 5 12 -8 110 83 154 145 66 91 114 198 135 308 12 57
13 586 2 637 -10 45 30 221 64 283 16 29 48 72 71 94 24 23 40 46 37 51 -3 6
-1 7 5 3 6 -3 25 3 44 13 40 24 139 51 188 51 56 0 151 -28 203 -60 53 -33 65
-37 48 -16 -9 11 -9 16 0 22 7 4 9 3 5 -4 -3 -6 -2 -13 4 -17 6 -4 8 -10 5
-15 -3 -5 0 -12 6 -15 12 -8 109 82 106 99 -1 6 3 10 9 9 11 -2 71 54 76 72 2
6 6 9 9 8 4 -1 17 9 30 23 l24 26 -35 29 c-91 77 -199 137 -222 123 -6 -4 -8
-3 -5 3 8 13 -39 27 -55 17 -6 -4 -8 -3 -5 3 8 13 -16 19 -93 28 -109 12 -126
12 -192 4z m-303 -139 c-3 -5 -13 -6 -22 -3 -12 5 -14 3 -8 -7 6 -9 4 -11 -5
-5 -10 6 -9 11 5 21 19 14 39 9 30 -6z m-75 -66 c0 -8 -19 -13 -24 -6 -3 5 1
9 9 9 8 0 15 -2 15 -3z m-90 -100 c0 -8 -19 -13 -24 -6 -3 5 1 9 9 9 8 0 15
-2 15 -3z m-74 -74 c0 -12 -4 -16 -9 -11 -5 5 -6 14 -3 20 10 15 12 14 12 -9z
m359 -39 c3 -5 2 -12 -3 -15 -5 -3 -9 1 -9 9 0 17 3 19 12 6z m-335 -217 l0
-54 49 0 c43 0 53 -4 76 -32 24 -28 27 -38 23 -87 -6 -72 -46 -111 -112 -111
-24 0 -48 6 -55 13 -11 14 -15 294 -5 322 12 29 24 3 24 -51z m-860 -1053 c-5
-11 -15 -23 -21 -27 -6 -3 -3 5 6 20 20 30 30 35 15 7z m-94 -99 c-17 -16 -18
-16 -5 5 7 12 15 20 18 17 3 -2 -3 -12 -13 -22z m944 -56 c0 -2 -6 -9 -14 -15
-11 -9 -16 -9 -22 0 -4 7 -3 9 4 5 6 -3 13 -2 17 4 6 10 15 14 15 6z m-983
-34 c-10 -10 -14 -22 -10 -27 5 -4 2 -5 -5 -1 -11 6 -10 12 4 27 9 10 19 19
22 19 3 0 -2 -8 -11 -18z"/>
<path d="M2593 2523 c-20 -7 -18 -172 2 -179 29 -11 82 16 96 48 34 82 -25
161 -98 131z"/>
<path d="M1632 2790 c0 -14 2 -19 5 -12 2 6 2 18 0 25 -3 6 -5 1 -5 -13z"/>
<path d="M1440 2655 c0 -5 5 -17 10 -25 5 -8 10 -10 10 -5 0 6 -5 17 -10 25
-5 8 -10 11 -10 5z"/>
<path d="M1485 2520 c3 -5 8 -10 11 -10 2 0 4 5 4 10 0 6 -5 10 -11 10 -5 0
-7 -4 -4 -10z"/>
<path d="M2438 2513 c-2 -4 -5 -43 -6 -85 -2 -65 0 -77 12 -72 20 8 39 69 31
101 -8 32 -31 68 -37 56z"/>
<path d="M1642 2420 c0 -14 2 -19 5 -12 2 6 2 18 0 25 -3 6 -5 1 -5 -13z"/>
<path d="M1421 2374 c0 -11 3 -14 6 -6 3 7 2 16 -1 19 -3 4 -6 -2 -5 -13z"/>
<path d="M1321 2304 c0 -11 3 -14 6 -6 3 7 2 16 -1 19 -3 4 -6 -2 -5 -13z"/>
<path d="M2346 2243 c-6 -14 -5 -15 5 -6 7 7 10 15 7 18 -3 3 -9 -2 -12 -12z"/>
<path d="M1720 2247 c0 -2 15 -16 33 -33 l32 -29 -29 33 c-28 30 -36 37 -36
29z"/>
<path d="M2880 2225 c13 -14 26 -25 28 -25 3 0 -5 11 -18 25 -13 14 -26 25
-28 25 -3 0 5 -11 18 -25z"/>
<path d="M2299 2193 c-13 -16 -12 -17 4 -4 9 7 17 15 17 17 0 8 -8 3 -21 -13z"/>
<path d="M3681 1957 c-13 -21 -12 -21 5 -5 10 10 16 20 13 22 -3 3 -11 -5 -18
-17z"/>
<path d="M4259 145 c0 -5 -3 -28 -5 -50 -5 -37 -4 -39 10 -20 l15 20 1 -20 1
-20 8 20 c10 23 4 38 -10 30 -5 -4 -9 -1 -9 4 0 6 9 11 20 11 14 0 18 5 13 16
-5 13 -7 13 -14 2 -7 -11 -11 -10 -19 2 -5 8 -10 11 -11 5z"/>
<path d="M4337 114 c4 -25 2 -39 -8 -45 -10 -6 -7 -9 11 -9 24 0 25 3 22 45
-3 29 -9 45 -17 45 -10 0 -12 -10 -8 -36z"/>
<path d="M4394 139 c-4 -8 -3 -9 4 -5 21 13 37 -6 18 -19 -15 -11 -15 -13 -1
-19 9 -3 13 -11 10 -17 -4 -6 -13 -8 -21 -5 -8 3 -14 1 -14 -5 0 -6 10 -9 23
-7 19 3 22 9 22 43 0 29 -4 41 -17 43 -9 2 -20 -2 -24 -9z"/>
<path d="M4467 144 c-14 -14 -7 -44 11 -44 14 0 15 2 2 10 -12 7 -12 12 -3 21
10 10 14 9 19 -4 9 -25 0 -52 -19 -51 -9 1 -17 -3 -17 -8 0 -5 10 -8 23 -6 19
3 22 9 22 43 0 28 -5 41 -15 43 -9 1 -19 0 -23 -4z"/>
<path d="M4537 143 c-4 -3 -7 -21 -7 -40 0 -36 23 -54 43 -34 15 15 54 14 60
-1 10 -24 23 10 19 47 -5 43 -17 44 -42 3 -16 -27 -20 -29 -26 -14 -4 11 -14
16 -26 13 -12 -4 -18 -1 -15 6 2 7 12 11 21 11 9 -1 16 2 16 7 0 10 -34 12
-43 2z m93 -38 c0 -8 -4 -15 -10 -15 -5 0 -7 7 -4 15 4 8 8 15 10 15 2 0 4 -7
4 -15z m-60 -15 c0 -21 -15 -27 -25 -10 -7 12 2 30 16 30 5 0 9 -9 9 -20z"/>
<path d="M4687 114 c4 -25 2 -39 -8 -45 -10 -6 -7 -9 11 -9 24 0 25 3 22 45
-3 29 -9 45 -17 45 -10 0 -12 -10 -8 -36z"/>
<path d="M4747 143 c-11 -19 -5 -74 9 -80 18 -7 46 16 37 31 -4 6 -7 20 -8 31
0 20 -29 33 -38 18z m30 -29 c-9 -9 -28 6 -21 18 4 6 10 6 17 -1 6 -6 8 -13 4
-17z m1 -32 c2 -7 -3 -12 -12 -12 -9 0 -16 7 -16 16 0 17 22 14 28 -4z"/>
<path d="M4823 143 c20 -5 20 -7 8 -51 -6 -20 -6 -32 0 -32 5 0 9 8 9 18 0 9
7 29 14 45 15 27 15 27 -17 26 -18 -1 -24 -3 -14 -6z"/>
<path d="M4884 136 c-10 -27 1 -71 18 -74 24 -5 42 42 28 69 -12 22 -38 25
-46 5z m34 -37 c-1 -13 -7 -23 -13 -22 -13 3 -18 30 -11 50 10 24 29 1 24 -28z"/>
</g>
</svg>
