<?xml version="1.0" standalone="no"?>
<!DOCTYPE svg PUBLIC "-//W3C//DTD SVG 20010904//EN"
 "http://www.w3.org/TR/2001/REC-SVG-20010904/DTD/svg10.dtd">
<svg version="1.0" xmlns="http://www.w3.org/2000/svg"
 width="260.000000pt" height="280.000000pt" viewBox="0 0 260.000000 280.000000"
 preserveAspectRatio="xMidYMid meet">

<g transform="translate(0.000000,280.000000) scale(0.100000,-0.100000)"
fill="#000000" stroke="none">
<path d="M712 2113 l2 -78 3 68 c4 65 5 69 26 64 12 -3 38 -2 57 3 l35 9 -42
-2 c-24 -1 -43 1 -43 5 0 5 -9 8 -20 8 -18 0 -20 -6 -18 -77z"/>
<path d="M1850 2186 c0 -2 9 -6 20 -9 11 -3 20 -1 20 4 0 5 -9 9 -20 9 -11 0
-20 -2 -20 -4z"/>
<path d="M1780 2176 c0 -2 15 -6 34 -8 19 -2 32 0 30 4 -5 8 -64 12 -64 4z"/>
<path d="M845 2160 c3 -5 19 -10 36 -10 20 0 29 -5 29 -16 0 -11 6 -14 20 -9
41 13 271 -129 254 -156 -3 -5 0 -8 7 -7 7 2 32 -26 56 -60 24 -35 43 -60 43
-55 0 36 -122 170 -204 224 -86 57 -261 121 -241 89z"/>
<path d="M1674 2151 c-65 -24 -117 -51 -110 -58 3 -3 12 0 20 6 9 7 24 10 37
6 15 -5 19 -4 15 4 -4 6 -1 13 6 15 60 19 119 45 103 45 -11 0 -43 -9 -71 -18z"/>
<path d="M1882 2103 c-1 -38 -7 -63 -14 -66 -10 -4 -10 -6 0 -6 19 -1 24 20
19 80 l-3 54 -2 -62z"/>
<path d="M1459 2027 c-35 -29 -81 -78 -101 -108 l-37 -54 29 -90 c17 -49 35
-110 41 -135 l11 -45 18 55 c10 30 21 64 24 75 4 11 -2 4 -13 -15 -11 -19 -20
-44 -21 -55 -1 -18 -1 -19 -11 -3 -5 10 -9 24 -8 30 1 7 -1 20 -4 28 -23 52
-35 103 -30 117 4 10 2 14 -4 10 -6 -4 -10 6 -11 22 0 19 10 41 32 65 18 19
31 37 29 40 -8 8 49 46 60 39 5 -3 7 -1 4 4 -4 6 10 25 31 42 20 17 35 30 31
31 -3 0 -34 -24 -70 -53z"/>
<path d="M710 2019 c0 -5 11 -9 25 -9 14 0 25 2 25 4 0 2 -11 6 -25 8 -14 3
-25 1 -25 -3z"/>
<path d="M1860 2020 l-35 -7 38 -2 c20 0 37 4 37 9 0 6 -1 9 -2 9 -2 -1 -19
-5 -38 -9z"/>
<path d="M810 2001 c60 -13 142 -54 210 -105 36 -26 54 -37 41 -23 -13 15 -42
39 -65 54 -22 15 -42 31 -44 36 -2 4 -10 7 -17 7 -7 0 -32 9 -56 20 -24 11
-57 19 -74 19 -29 -1 -29 -1 5 -8z"/>
<path d="M1750 2003 c-8 -3 -37 -16 -64 -29 -29 -15 -57 -22 -69 -18 -17 5
-18 4 -6 -9 12 -13 19 -12 62 9 26 14 71 31 100 39 39 10 45 14 22 14 -16 -1
-37 -3 -45 -6z"/>
<path d="M1595 1919 c-4 -6 -14 -8 -22 -5 -8 3 -12 2 -9 -3 8 -12 -29 -43 -39
-34 -4 5 -5 3 -2 -4 4 -6 -4 -20 -18 -32 -15 -11 -26 -23 -27 -28 -2 -22 -22
-52 -31 -46 -6 3 -7 1 -3 -5 10 -17 9 -17 45 38 17 27 53 67 79 90 26 22 44
40 40 40 -4 0 -10 -5 -13 -11z"/>
<path d="M1109 1798 c39 -57 77 -157 101 -263 10 -44 19 -70 19 -58 1 12 4 30
8 40 3 10 2 14 -2 10 -11 -10 -45 111 -37 132 3 9 1 13 -3 8 -11 -9 -47 82
-38 96 3 6 1 7 -5 3 -6 -4 -17 5 -26 22 -8 16 -22 35 -31 42 -10 8 -3 -7 14
-32z"/>
<path d="M1286 1822 c-4 -7 -3 -12 1 -12 5 0 15 -16 22 -36 7 -19 15 -34 17
-31 2 2 -4 24 -14 47 -12 28 -21 39 -26 32z"/>
<path d="M1338 1665 c9 -36 18 -63 20 -61 6 7 -18 115 -27 121 -5 2 -1 -25 7
-60z"/>
<path d="M1355 1580 c4 -6 8 -30 9 -54 2 -24 6 -48 10 -54 3 -6 4 -18 1 -29
-3 -10 0 -7 7 6 10 19 10 25 0 29 -7 2 -10 8 -6 13 8 14 -7 99 -18 99 -5 0 -6
-5 -3 -10z"/>
<path d="M1231 1434 c0 -11 3 -14 6 -6 3 7 2 16 -1 19 -3 4 -6 -2 -5 -13z"/>
<path d="M1392 1420 c0 -14 2 -19 5 -12 2 6 2 18 0 25 -3 6 -5 1 -5 -13z"/>
<path d="M1241 1384 c0 -11 3 -14 6 -6 3 7 2 16 -1 19 -3 4 -6 -2 -5 -13z"/>
<path d="M1404 1354 c0 -23 4 -40 8 -38 4 2 10 -5 13 -17 4 -11 8 -19 10 -17
2 2 -4 28 -15 58 l-18 55 2 -41z"/>
<path d="M1256 1363 c-13 -41 55 -229 103 -283 17 -20 17 -16 -4 17 -15 24
-24 47 -19 54 4 7 3 10 -3 6 -14 -9 -24 18 -16 40 4 10 2 14 -4 10 -13 -8 -23
14 -23 48 0 13 -5 27 -11 31 -6 3 -9 18 -6 33 3 14 1 35 -3 46 -7 19 -7 19
-14 -2z"/>
<path d="M1440 1263 c0 -14 53 -95 75 -113 8 -7 12 -17 8 -24 -3 -6 -3 -8 2
-4 9 8 81 -51 78 -64 -2 -4 5 -4 14 -1 11 4 14 3 9 -6 -5 -8 -3 -11 5 -10 8 2
30 -5 49 -16 40 -22 41 -22 95 -29 l40 -6 -46 14 c-124 36 -227 111 -291 211
-21 33 -38 55 -38 48z"/>
<path d="M1400 1024 c72 -77 188 -147 300 -182 64 -19 232 -41 180 -23 -14 5
-43 9 -65 10 -47 1 -185 40 -185 52 0 5 -9 9 -20 9 -13 0 -18 5 -14 15 4 8 1
15 -6 15 -6 0 -8 -4 -5 -10 10 -16 -12 -12 -29 5 -8 8 -19 15 -25 15 -5 0 -14
6 -18 14 -4 8 -12 15 -16 15 -18 0 -64 48 -61 65 2 14 0 15 -12 5 -8 -7 -14
-7 -14 -1 0 5 -8 13 -17 16 -13 5 -10 -1 7 -20z"/>
<path d="M1821 986 c2 -2 18 -11 35 -19 30 -16 32 -15 37 3 4 18 0 20 -36 20
-22 0 -38 -2 -36 -4z"/>
<path d="M1882 900 c0 -14 2 -19 5 -12 2 6 2 18 0 25 -3 6 -5 1 -5 -13z"/>
<path d="M603 95 c0 -27 2 -38 4 -22 2 15 8 27 13 27 5 0 11 -12 13 -27 4 -26
4 -26 6 5 1 22 -4 32 -13 32 -8 0 -17 8 -19 18 -3 9 -5 -5 -4 -33z"/>
<path d="M1102 95 c0 -27 2 -43 5 -35 3 8 13 24 22 35 15 18 15 19 -1 7 -14
-12 -17 -10 -21 15 -2 16 -4 6 -5 -22z"/>
<path d="M720 120 c-4 -25 1 -54 10 -63 4 -5 5 3 3 17 -4 19 -1 26 10 26 9 0
17 -10 19 -22 2 -12 9 -23 16 -24 7 -1 8 0 2 3 -12 6 -13 40 -1 45 5 2 3 9 -5
16 -8 7 -14 8 -14 2 0 -14 -27 -13 -33 3 -4 8 -6 8 -7 -3z"/>
<path d="M949 118 c-2 -25 3 -53 11 -62 5 -5 6 1 3 14 -3 12 -1 25 4 29 7 4 6
11 -3 19 -11 10 -14 10 -15 0z"/>
<path d="M1500 125 c-1 -5 -1 -21 0 -34 1 -13 -4 -28 -12 -32 -9 -6 -3 -9 17
-9 17 0 25 4 18 8 -6 4 -13 23 -16 42 -2 19 -5 31 -7 25z"/>
<path d="M1540 110 c-13 -24 2 -60 25 -60 17 0 28 33 20 60 -3 11 -13 20 -20
20 -8 0 -19 -9 -25 -20z m35 -20 c0 -27 -20 -38 -28 -15 -8 20 3 47 17 42 6
-2 11 -14 11 -27z"/>
<path d="M1605 120 c-3 -5 0 -7 8 -4 24 9 28 -11 7 -34 -26 -28 -25 -32 8 -31
21 0 23 2 9 7 -15 7 -16 10 -3 27 7 10 12 25 9 32 -6 15 -29 17 -38 3z"/>
<path d="M1680 125 c-1 -5 -1 -21 0 -34 1 -13 -4 -28 -12 -32 -9 -6 -3 -9 17
-9 17 0 25 4 18 8 -6 4 -13 23 -16 42 -2 19 -5 31 -7 25z"/>
<path d="M1727 123 c-11 -11 -8 -43 4 -43 6 0 9 -7 5 -15 -9 -25 3 -17 17 13
8 15 12 33 10 40 -5 13 -25 16 -36 5z m25 -18 c0 -5 -5 -11 -11 -13 -6 -2 -11
4 -11 13 0 9 5 15 11 13 6 -2 11 -8 11 -13z"/>
<path d="M1790 106 c-15 -29 -8 -56 15 -56 23 0 31 31 12 45 -12 9 -14 14 -5
23 7 7 8 12 2 12 -6 0 -16 -11 -24 -24z m22 -31 c0 -5 -5 -11 -11 -13 -6 -2
-11 4 -11 13 0 9 5 15 11 13 6 -2 11 -8 11 -13z"/>
<path d="M1845 120 c-4 -6 1 -7 11 -3 13 5 16 3 11 -10 -3 -9 -2 -19 4 -22 14
-9 -1 -27 -18 -21 -8 3 -11 1 -8 -4 8 -14 32 -13 37 2 13 39 -18 88 -37 58z"/>
<path d="M1904 115 c-4 -8 -1 -22 6 -30 6 -8 9 -20 5 -27 -4 -7 1 -4 9 6 9 11
16 25 16 30 1 6 8 -1 16 -16 17 -33 40 -36 49 -8 15 46 -22 81 -44 43 -9 -17
-10 -17 -16 0 -9 21 -34 22 -41 2z m28 -10 c0 -5 -5 -11 -11 -13 -6 -2 -11 4
-11 13 0 9 5 15 11 13 6 -2 11 -8 11 -13z m63 -15 c0 -13 -5 -25 -11 -27 -14
-5 -25 22 -17 42 8 23 28 12 28 -15z"/>
<path d="M2024 115 c-4 -8 -1 -22 6 -30 6 -8 9 -19 5 -25 -3 -5 -4 -10 -1 -10
10 0 33 55 29 68 -6 17 -32 15 -39 -3z m28 -10 c0 -5 -5 -11 -11 -13 -6 -2
-11 4 -11 13 0 9 5 15 11 13 6 -2 11 -8 11 -13z"/>
<path d="M550 93 c0 -10 4 -14 8 -8 4 6 11 13 16 18 5 4 2 7 -7 7 -10 0 -17
-8 -17 -17z"/>
<path d="M661 83 c-1 -27 3 -33 19 -33 16 0 20 6 19 33 -2 30 -2 30 -6 5 -6
-36 -20 -36 -26 0 -4 25 -4 25 -6 -5z"/>
<path d="M807 104 c-13 -13 -7 -24 14 -24 11 0 19 5 17 12 -5 14 -22 21 -31
12z"/>
<path d="M861 78 c2 -28 2 -29 6 -8 3 14 10 28 17 32 7 5 5 8 -6 8 -14 0 -18
-8 -17 -32z"/>
<path d="M900 93 c0 -10 4 -14 8 -8 4 6 11 13 16 18 5 4 2 7 -7 7 -10 0 -17
-8 -17 -17z"/>
<path d="M997 103 c-4 -3 -7 -11 -7 -17 0 -6 5 -4 10 4 7 11 12 12 21 3 14
-14 2 -36 -18 -29 -8 3 -11 1 -8 -4 10 -15 32 -12 39 6 10 25 -20 55 -37 37z"/>
<path d="M1054 95 c-8 -20 2 -45 18 -44 10 0 10 2 1 6 -7 2 -13 13 -13 23 0
10 6 21 13 23 9 4 9 6 -1 6 -7 1 -15 -6 -18 -14z"/>
<path d="M1194 95 c-8 -20 2 -45 18 -44 10 0 10 2 1 6 -7 2 -13 13 -13 23 0
10 6 21 13 23 9 4 9 6 -1 6 -7 1 -15 -6 -18 -14z"/>
<path d="M1247 103 c-11 -10 -8 -41 4 -49 16 -9 41 20 33 39 -6 17 -25 22 -37
10z m28 -23 c0 -7 -6 -15 -12 -17 -8 -3 -13 4 -13 17 0 13 5 20 13 18 6 -3 12
-11 12 -18z"/>
<path d="M1301 77 c2 -31 2 -31 6 -4 2 15 8 27 13 27 5 0 11 -12 13 -27 l4
-28 2 28 c0 15 5 27 10 27 5 0 12 -12 14 -27 4 -27 4 -27 6 4 1 29 -1 31 -34
31 -33 0 -35 -2 -34 -31z"/>
<path d="M562 65 c-11 -12 -10 -15 3 -15 8 0 15 7 15 15 0 18 -2 18 -18 0z"/>
<path d="M912 65 c-11 -12 -10 -15 3 -15 8 0 15 7 15 15 0 18 -2 18 -18 0z"/>
<path d="M1120 71 c0 -5 5 -13 10 -16 6 -3 10 -2 10 4 0 5 -4 13 -10 16 -5 3
-10 2 -10 -4z"/>
<path d="M808 58 c5 -5 16 -8 23 -6 8 3 3 7 -10 11 -17 4 -21 3 -13 -5z"/>
</g>
</svg>
