<svg fill="#000000" xmlns="http://www.w3.org/2000/svg"  viewBox="0 0 26 26" width="52px" height="52px"><path d="M 15.472656 11.75 C 15.574219 11.78125 15.664063 11.832031 15.746094 11.898438 L 15.746094 15.597656 C 15.667969 15.839844 15.554688 16.027344 15.40625 16.152344 C 15.261719 16.277344 15.054688 16.339844 14.800781 16.339844 C 14.476563 16.339844 14.242188 16.171875 14.089844 15.828125 C 13.921875 15.457031 13.835938 14.90625 13.835938 14.191406 C 13.835938 13.238281 13.941406 12.566406 14.140625 12.203125 C 14.332031 11.859375 14.609375 11.691406 14.992188 11.691406 C 15.1875 11.691406 15.351563 11.714844 15.472656 11.75 Z M 26 4.875 L 26 21.125 C 26 23.816406 23.816406 26 21.125 26 L 4.875 26 C 2.183594 26 0 23.816406 0 21.125 L 0 4.875 C 0 2.183594 2.183594 0 4.875 0 L 21.125 0 C 23.816406 0 26 2.183594 26 4.875 Z M 10.574219 6.800781 C 10.574219 6.730469 10.515625 6.675781 10.449219 6.675781 L 8.433594 6.675781 C 8.363281 6.675781 8.308594 6.730469 8.308594 6.800781 L 8.308594 18 C 8.308594 18.070313 8.363281 18.125 8.433594 18.125 L 10.449219 18.125 C 10.515625 18.125 10.574219 18.070313 10.574219 18 Z M 18.050781 18.015625 C 18.050781 17.996094 18.046875 17.976563 18.039063 17.960938 C 17.96875 17.4375 17.925781 16.953125 17.914063 16.523438 C 17.90625 16.078125 17.898438 15.628906 17.898438 15.183594 L 17.898438 6.800781 C 17.898438 6.730469 17.84375 6.675781 17.773438 6.675781 L 15.871094 6.675781 C 15.804688 6.675781 15.746094 6.730469 15.746094 6.800781 L 15.746094 9.84375 C 15.632813 9.804688 15.515625 9.773438 15.398438 9.75 C 15.21875 9.714844 15.003906 9.699219 14.734375 9.699219 C 13.703125 9.699219 12.914063 10.085938 12.390625 10.847656 C 11.878906 11.597656 11.617188 12.699219 11.617188 14.128906 C 11.617188 15.589844 11.859375 16.660156 12.339844 17.320313 C 12.824219 17.992188 13.503906 18.332031 14.351563 18.332031 C 15.222656 18.332031 15.863281 18 16.257813 17.339844 L 16.453125 18.046875 C 16.46875 18.101563 16.519531 18.140625 16.574219 18.140625 L 17.917969 18.140625 C 17.921875 18.140625 17.921875 18.140625 17.925781 18.140625 C 17.992188 18.140625 18.050781 18.085938 18.050781 18.015625 Z"/></svg>